<svg width="14" height="14" viewBox="0 0 14 14" fill="none" xmlns="http://www.w3.org/2000/svg">
<path d="M6.99967 0.333984C4.82705 0.333984 2.8988 1.38558 1.68066 3.00065H1.66634V3.01888C0.832976 4.13178 0.333008 5.50757 0.333008 7.00065C0.333008 10.6747 3.32567 13.6673 6.99967 13.6673C10.6737 13.6673 13.6663 10.6747 13.6663 7.00065C13.6663 3.32665 10.6737 0.333984 6.99967 0.333984ZM8.99967 2.05664C10.9564 2.84556 12.333 4.75575 12.333 7.00065C12.333 8.39254 11.8001 9.65286 10.932 10.6009C10.7614 10.0611 10.2627 9.66732 9.66634 9.66732H8.99967V7.66732C8.99967 7.29932 8.70101 7.00065 8.33301 7.00065H4.99967V5.66732H5.66634C6.03434 5.66732 6.33301 5.36865 6.33301 5.00065V3.66732H7.66634C8.40301 3.66732 8.99967 3.07065 8.99967 2.33398V2.05664ZM1.80436 5.80534L2.99967 7.00065L4.99967 9.00065V9.66732C4.99967 10.404 5.59634 11.0007 6.33301 11.0007V12.2884C3.69686 11.9614 1.66634 9.72775 1.66634 7.00065C1.66634 6.58878 1.71669 6.19001 1.80436 5.80534Z" fill="#6A9586"/>
</svg>
