<svg width="20" height="18" viewBox="0 0 20 18" fill="none" xmlns="http://www.w3.org/2000/svg">
<path d="M8.78836 16.1363L8.78764 16.1356C6.39611 13.9197 4.45077 12.1139 3.09748 10.4222C1.74999 8.7377 1.03906 7.2254 1.03906 5.60465C1.03906 2.95062 3.06323 0.90625 5.62656 0.90625C7.08086 0.90625 8.48803 1.60065 9.4062 2.69378L9.78906 3.14959L10.1719 2.69378C11.0901 1.60065 12.4973 0.90625 13.9516 0.90625C16.5149 0.90625 18.5391 2.95062 18.5391 5.60465C18.5391 7.2254 17.8281 8.7377 16.4806 10.4222C15.1274 12.1139 13.182 13.9197 10.7905 16.1356L10.7898 16.1363L9.78906 17.0671L8.78836 16.1363Z" stroke="#6A9586"/>
</svg>
