<svg width="32" height="32" viewBox="0 0 32 32" fill="none" xmlns="http://www.w3.org/2000/svg">
<rect width="32" height="32" rx="16" fill="#F6F7FC"/>
<path d="M11.9997 10C11.6461 10 11.3069 10.1405 11.0569 10.3905C10.8068 10.6406 10.6663 10.9797 10.6663 11.3333C10.6663 11.687 10.8068 12.0261 11.0569 12.2761C11.3069 12.5262 11.6461 12.6667 11.9997 12.6667C12.3533 12.6667 12.6924 12.5262 12.9425 12.2761C13.1925 12.0261 13.333 11.687 13.333 11.3333C13.333 10.9797 13.1925 10.6406 12.9425 10.3905C12.6924 10.1405 12.3533 10 11.9997 10ZM19.9997 10C19.6461 10 19.3069 10.1405 19.0569 10.3905C18.8068 10.6406 18.6663 10.9797 18.6663 11.3333C18.6663 11.687 18.8068 12.0261 19.0569 12.2761C19.3069 12.5262 19.6461 12.6667 19.9997 12.6667C20.3533 12.6667 20.6924 12.5262 20.9425 12.2761C21.1925 12.0261 21.333 11.687 21.333 11.3333C21.333 10.9797 21.1925 10.6406 20.9425 10.3905C20.6924 10.1405 20.3533 10 19.9997 10ZM15.9997 12.6667C15.6461 12.6667 15.3069 12.8071 15.0569 13.0572C14.8068 13.3072 14.6663 13.6464 14.6663 14C14.6663 14.3536 14.8068 14.6928 15.0569 14.9428C15.3069 15.1929 15.6461 15.3333 15.9997 15.3333C16.3533 15.3333 16.6924 15.1929 16.9425 14.9428C17.1925 14.6928 17.333 14.3536 17.333 14C17.333 13.6464 17.1925 13.3072 16.9425 13.0572C16.6924 12.8071 16.3533 12.6667 15.9997 12.6667ZM11.9997 15.3333C11.6461 15.3333 11.3069 15.4738 11.0569 15.7239C10.8068 15.9739 10.6663 16.313 10.6663 16.6667C10.6663 17.0203 10.8068 17.3594 11.0569 17.6095C11.3069 17.8595 11.6461 18 11.9997 18C12.3533 18 12.6924 17.8595 12.9425 17.6095C13.1925 17.3594 13.333 17.0203 13.333 16.6667C13.333 16.313 13.1925 15.9739 12.9425 15.7239C12.6924 15.4738 12.3533 15.3333 11.9997 15.3333ZM19.9997 15.3333C19.6461 15.3333 19.3069 15.4738 19.0569 15.7239C18.8068 15.9739 18.6663 16.313 18.6663 16.6667C18.6663 17.0203 18.8068 17.3594 19.0569 17.6095C19.3069 17.8595 19.6461 18 19.9997 18C20.3533 18 20.6924 17.8595 20.9425 17.6095C21.1925 17.3594 21.333 17.0203 21.333 16.6667C21.333 16.313 21.1925 15.9739 20.9425 15.7239C20.6924 15.4738 20.3533 15.3333 19.9997 15.3333ZM11.9997 19.3333C11.1097 19.3333 9.33301 19.8139 9.33301 20.7005V22H14.6663V20.7005C14.6663 19.8139 12.8897 19.3333 11.9997 19.3333ZM19.9997 19.3333C19.1097 19.3333 17.333 19.8139 17.333 20.7005V22H22.6663V20.7005C22.6663 19.8139 20.8897 19.3333 19.9997 19.3333Z" fill="#6A9586"/>
</svg>
