<svg width="32" height="33" viewBox="0 0 32 33" fill="none" xmlns="http://www.w3.org/2000/svg">
<rect y="0.5" width="32" height="32" rx="16" fill="#F6F7FC"/>
<path d="M15.9997 9.83301C13.4223 9.83301 11.333 11.9223 11.333 14.4997C11.333 17.1437 14.269 21.0463 15.4837 22.547C15.7503 22.8763 16.249 22.8763 16.5157 22.547C17.7303 21.0463 20.6663 17.1437 20.6663 14.4997C20.6663 11.9223 18.577 9.83301 15.9997 9.83301ZM15.9997 16.1663C15.079 16.1663 14.333 15.4203 14.333 14.4997C14.333 13.579 15.079 12.833 15.9997 12.833C16.9203 12.833 17.6663 13.579 17.6663 14.4997C17.6663 15.4203 16.9203 16.1663 15.9997 16.1663Z" fill="#6A9586"/>
</svg>
