<svg width="32" height="32" viewBox="0 0 32 32" fill="none" xmlns="http://www.w3.org/2000/svg">
<rect width="32" height="32" rx="16" fill="#F6F7FC"/>
<path d="M10.6668 10.1338C10.0775 10.1338 9.60016 10.6111 9.60016 11.2005V12.8005V13.8671H19.7335H22.4002V12.2671C22.4002 11.6778 21.9228 11.2005 21.3335 11.2005H14.5064L14.1772 10.6515C13.9847 10.3304 13.6376 10.1338 13.2627 10.1338H10.6668ZM9.33454 14.9338C8.79641 14.9338 8.41105 15.4551 8.56891 15.9692L10.1522 21.114C10.2904 21.5615 10.7038 21.8671 11.172 21.8671H16.0002H20.8283C21.2966 21.8671 21.7099 21.5615 21.8481 21.114L23.4314 15.9692C23.5893 15.4551 23.2039 14.9338 22.6658 14.9338H16.0002H9.33454Z" fill="#6A9586"/>
</svg>
