<svg width="32" height="33" viewBox="0 0 32 33" fill="none" xmlns="http://www.w3.org/2000/svg">
<rect y="0.5" width="32" height="32" rx="16" fill="#F6F7FC"/>
<path d="M15.9997 9.83301C13.8271 9.83301 11.8988 10.8846 10.6807 12.4997H10.6663V12.5179C9.83298 13.6308 9.33301 15.0066 9.33301 16.4997C9.33301 20.1737 12.3257 23.1663 15.9997 23.1663C19.6737 23.1663 22.6663 20.1737 22.6663 16.4997C22.6663 12.8257 19.6737 9.83301 15.9997 9.83301ZM17.9997 11.5557C19.9564 12.3446 21.333 14.2548 21.333 16.4997C21.333 17.8916 20.8001 19.1519 19.932 20.0999C19.7614 19.5601 19.2627 19.1663 18.6663 19.1663H17.9997V17.1663C17.9997 16.7983 17.701 16.4997 17.333 16.4997H13.9997V15.1663H14.6663C15.0343 15.1663 15.333 14.8677 15.333 14.4997V13.1663H16.6663C17.403 13.1663 17.9997 12.5697 17.9997 11.833V11.5557ZM10.8044 15.3044L11.9997 16.4997L13.9997 18.4997V19.1663C13.9997 19.903 14.5963 20.4997 15.333 20.4997V21.7874C12.6969 21.4604 10.6663 19.2268 10.6663 16.4997C10.6663 16.0878 10.7167 15.689 10.8044 15.3044Z" fill="#6A9586"/>
</svg>
