<svg width="32" height="32" viewBox="0 0 32 32" fill="none" xmlns="http://www.w3.org/2000/svg">
<rect width="32" height="32" rx="16" fill="#F6F7FC"/>
<path d="M12 8.66699V10.0003H11.3333C10.6 10.0003 10 10.6003 10 11.3337V20.667C10 21.4003 10.6 22.0003 11.3333 22.0003H20.6667C21.4 22.0003 22 21.4003 22 20.667V11.3337C22 10.6003 21.4 10.0003 20.6667 10.0003H20V8.66699H18.6667V10.0003H13.3333V8.66699H12ZM11.3333 13.3337H20.6667V20.667H11.3333V13.3337ZM14.6667 15.3337L12.6667 17.3337L14.6667 19.3337V18.0003H17.3333V19.3337L19.3333 17.3337L17.3333 15.3337V16.667H14.6667V15.3337Z" fill="#6A9586"/>
</svg>
