<svg width="32" height="32" viewBox="0 0 32 32" fill="none" xmlns="http://www.w3.org/2000/svg">
<rect width="32" height="32" rx="16" fill="#F6F7FC"/>
<path d="M12.6667 9.33301C12.313 9.33301 11.9739 9.47348 11.7239 9.72353C11.4738 9.97358 11.3333 10.3127 11.3333 10.6663C11.3333 11.02 11.4738 11.3591 11.7239 11.6092C11.9739 11.8592 12.313 11.9997 12.6667 11.9997C13.0203 11.9997 13.3594 11.8592 13.6095 11.6092C13.8595 11.3591 14 11.02 14 10.6663C14 10.3127 13.8595 9.97358 13.6095 9.72353C13.3594 9.47348 13.0203 9.33301 12.6667 9.33301ZM16 9.33301C15.6464 9.33301 15.3072 9.47348 15.0572 9.72353C14.8071 9.97358 14.6667 10.3127 14.6667 10.6663C14.6667 11.02 14.8071 11.3591 15.0572 11.6092C15.3072 11.8592 15.6464 11.9997 16 11.9997C16.3536 11.9997 16.6928 11.8592 16.9428 11.6092C17.1929 11.3591 17.3333 11.02 17.3333 10.6663C17.3333 10.3127 17.1929 9.97358 16.9428 9.72353C16.6928 9.47348 16.3536 9.33301 16 9.33301ZM19.3333 9.33301C18.9797 9.33301 18.6406 9.47348 18.3905 9.72353C18.1405 9.97358 18 10.3127 18 10.6663C18 11.02 18.1405 11.3591 18.3905 11.6092C18.6406 11.8592 18.9797 11.9997 19.3333 11.9997C19.687 11.9997 20.0261 11.8592 20.2761 11.6092C20.5262 11.3591 20.6667 11.02 20.6667 10.6663C20.6667 10.3127 20.5262 9.97358 20.2761 9.72353C20.0261 9.47348 19.687 9.33301 19.3333 9.33301ZM11.3333 12.6663C10.5967 12.6663 10 13.263 10 13.9997V18.6663H10.6667V22.6663H12V17.333H11.3333V13.9997H12.0677C12.169 13.5043 12.3889 13.0557 12.6836 12.6663H11.3333ZM15.3333 12.6663C14.2287 12.6663 13.3333 13.5617 13.3333 14.6663V19.9997H14V22.6663H15.3333V19.9997H16.6667V22.6663H18V19.9997H18.6667V14.6663C18.6667 13.5617 17.7713 12.6663 16.6667 12.6663H15.3333ZM19.3164 12.6663C19.6111 13.0557 19.8316 13.5043 19.9323 13.9997H20.6667V17.333H20V22.6663H21.3333V18.6663H22V13.9997C22 13.263 21.4033 12.6663 20.6667 12.6663H19.3164Z" fill="#6A9586"/>
</svg>
