<svg width="12" height="14" viewBox="0 0 12 14" fill="none" xmlns="http://www.w3.org/2000/svg">
<path d="M2.66667 0.333008C2.31304 0.333008 1.97391 0.473484 1.72386 0.723532C1.47381 0.97358 1.33333 1.31272 1.33333 1.66634C1.33333 2.01996 1.47381 2.3591 1.72386 2.60915C1.97391 2.8592 2.31304 2.99967 2.66667 2.99967C3.02029 2.99967 3.35943 2.8592 3.60948 2.60915C3.85952 2.3591 4 2.01996 4 1.66634C4 1.31272 3.85952 0.97358 3.60948 0.723532C3.35943 0.473484 3.02029 0.333008 2.66667 0.333008ZM6 0.333008C5.64638 0.333008 5.30724 0.473484 5.05719 0.723532C4.80714 0.97358 4.66667 1.31272 4.66667 1.66634C4.66667 2.01996 4.80714 2.3591 5.05719 2.60915C5.30724 2.8592 5.64638 2.99967 6 2.99967C6.35362 2.99967 6.69276 2.8592 6.94281 2.60915C7.19286 2.3591 7.33333 2.01996 7.33333 1.66634C7.33333 1.31272 7.19286 0.97358 6.94281 0.723532C6.69276 0.473484 6.35362 0.333008 6 0.333008ZM9.33333 0.333008C8.97971 0.333008 8.64057 0.473484 8.39052 0.723532C8.14048 0.97358 8 1.31272 8 1.66634C8 2.01996 8.14048 2.3591 8.39052 2.60915C8.64057 2.8592 8.97971 2.99967 9.33333 2.99967C9.68696 2.99967 10.0261 2.8592 10.2761 2.60915C10.5262 2.3591 10.6667 2.01996 10.6667 1.66634C10.6667 1.31272 10.5262 0.97358 10.2761 0.723532C10.0261 0.473484 9.68696 0.333008 9.33333 0.333008ZM1.33333 3.66634C0.596667 3.66634 0 4.26301 0 4.99967V9.66634H0.666667V13.6663H2V8.33301H1.33333V4.99967H2.06771C2.16904 4.50434 2.38893 4.05567 2.68359 3.66634H1.33333ZM5.33333 3.66634C4.22867 3.66634 3.33333 4.56167 3.33333 5.66634V10.9997H4V13.6663H5.33333V10.9997H6.66667V13.6663H8V10.9997H8.66667V5.66634C8.66667 4.56167 7.77133 3.66634 6.66667 3.66634H5.33333ZM9.31641 3.66634C9.61107 4.05567 9.83162 4.50434 9.93229 4.99967H10.6667V8.33301H10V13.6663H11.3333V9.66634H12V4.99967C12 4.26301 11.4033 3.66634 10.6667 3.66634H9.31641Z" fill="#6A9586"/>
</svg>
