<svg width="31" height="30" viewBox="0 0 31 30" fill="none" xmlns="http://www.w3.org/2000/svg">
<path d="M24.3243 3H6.79264C5.00656 3 3.55859 4.44791 3.55859 6.23405V23.7658C3.55859 25.552 5.0065 26.9999 6.79264 26.9999H15.4392L15.4539 18.4236H13.2258C12.9362 18.4236 12.7012 18.1895 12.7001 17.8999L12.6894 15.1354C12.6883 14.8443 12.924 14.6077 13.2152 14.6077H15.4392V11.9365C15.4392 8.83661 17.3325 7.14869 20.0978 7.14869H22.3669C22.6572 7.14869 22.8927 7.38406 22.8927 7.67444V10.0055C22.8927 10.2957 22.6574 10.531 22.3672 10.5312L20.9747 10.5319C19.4708 10.5319 19.1796 11.2465 19.1796 12.2952V14.6078H22.4841C22.799 14.6078 23.0433 14.8827 23.0061 15.1954L22.6785 17.9599C22.6471 18.2244 22.4228 18.4237 22.1564 18.4237H19.1943L19.1796 27H24.3244C26.1105 27 27.5584 25.5521 27.5584 23.766V6.23405C27.5584 4.44791 26.1104 3 24.3243 3Z" fill="#E6EAFF"/>
</svg>
