<svg width="31" height="30" viewBox="0 0 31 30" fill="none" xmlns="http://www.w3.org/2000/svg">
<path d="M22.2334 26.9873L8.90711 27C5.97532 27.0027 3.57459 24.6066 3.57126 21.6748L3.5586 8.34851C3.55593 5.41673 5.952 3.01599 8.88378 3.01266L22.2101 3C25.1419 2.99734 27.5426 5.39341 27.5459 8.32519L27.5586 21.6515C27.5619 24.5839 25.1652 26.9847 22.2334 26.9873Z" fill="#E6EAFF"/>
<path d="M22.2334 26.9873L8.90711 27C5.97532 27.0027 3.57459 24.6066 3.57126 21.6748L3.5586 8.34851C3.55593 5.41673 5.952 3.01599 8.88378 3.01266L22.2101 3C25.1419 2.99734 27.5426 5.39341 27.5459 8.32519L27.5586 21.6515C27.5619 24.5839 25.1652 26.9847 22.2334 26.9873Z" fill="#E6EAFF"/>
<path d="M15.5578 19.5706C13.0376 19.5706 10.9863 17.52 10.9863 14.9992C10.9863 12.4783 13.0376 10.4277 15.5578 10.4277C18.0779 10.4277 20.1292 12.4783 20.1292 14.9992C20.1292 17.52 18.0779 19.5706 15.5578 19.5706ZM15.5578 11.7339C13.7573 11.7339 12.2925 13.1987 12.2925 14.9992C12.2925 16.7997 13.7573 18.2645 15.5578 18.2645C17.3582 18.2645 18.8231 16.7997 18.8231 14.9992C18.8231 13.1987 17.3582 11.7339 15.5578 11.7339Z" fill="#383B50"/>
<path d="M20.4157 10.9864C20.8891 10.9864 21.2729 10.6017 21.2729 10.127C21.2729 9.65236 20.8891 9.26758 20.4157 9.26758C19.9423 9.26758 19.5586 9.65236 19.5586 10.127C19.5586 10.6017 19.9423 10.9864 20.4157 10.9864Z" fill="#383B50"/>
<path d="M19.5138 23.5706H11.6017C9.05732 23.5706 6.98633 21.5003 6.98633 18.9552V11.0431C6.98633 8.49806 9.05732 6.42773 11.6017 6.42773H19.5138C22.0582 6.42773 24.1292 8.49806 24.1292 11.0431V18.9552C24.1292 21.5003 22.0582 23.5706 19.5138 23.5706ZM11.6017 7.74642C9.78391 7.74642 8.30501 9.22532 8.30501 11.0431V18.9552C8.30501 20.773 9.78391 22.2519 11.6017 22.2519H19.5138C21.3316 22.2519 22.8105 20.773 22.8105 18.9552V11.0431C22.8105 9.22532 21.3316 7.74642 19.5138 7.74642H11.6017Z" fill="#383B50"/>
</svg>
