<svg width="31" height="30" viewBox="0 0 31 30" fill="none" xmlns="http://www.w3.org/2000/svg">
<path d="M27.5586 7.3085C26.6661 7.7 25.7151 7.9595 24.7236 8.0855C25.7436 7.4765 26.5221 6.5195 26.8881 5.366C25.9371 5.933 24.8871 6.3335 23.7681 6.557C22.8651 5.5955 21.5781 5 20.1741 5C17.4501 5 15.2571 7.211 15.2571 9.9215C15.2571 10.3115 15.2901 10.6865 15.3711 11.0435C11.2806 10.844 7.66109 8.8835 5.22959 5.897C4.80509 6.6335 4.55609 7.4765 4.55609 8.384C4.55609 10.088 5.43359 11.5985 6.74159 12.473C5.95109 12.458 5.17559 12.2285 4.51859 11.867C4.51859 11.882 4.51859 11.9015 4.51859 11.921C4.51859 14.312 6.22409 16.298 8.46059 16.7555C8.06009 16.865 7.62359 16.9175 7.17059 16.9175C6.85559 16.9175 6.53759 16.8995 6.23909 16.8335C6.87659 18.782 8.68559 20.2145 10.8366 20.261C9.16259 21.5705 7.03709 22.3595 4.73609 22.3595C4.33259 22.3595 3.94559 22.3415 3.55859 22.292C5.73809 23.6975 8.32109 24.5 11.1066 24.5C20.1606 24.5 25.1106 17 25.1106 10.499C25.1106 10.2815 25.1031 10.0715 25.0926 9.863C26.0691 9.17 26.8896 8.3045 27.5586 7.3085Z" fill="#E6EAFF"/>
</svg>
